<svg width="22" height="22" viewBox="0 0 22 22" fill="none" xmlns="http://www.w3.org/2000/svg">
<path fill-rule="evenodd" clip-rule="evenodd" d="M12.25 1.76764C12.25 1.07729 11.6904 0.517645 11 0.517645C10.3096 0.517645 9.75 1.07729 9.75 1.76764V9.53115H1.98649C1.29614 9.53115 0.736493 10.0908 0.736493 10.7812C0.736493 11.4715 1.29614 12.0312 1.98649 12.0312L9.75 12.0312L9.75 19.7947C9.75 20.485 10.3096 21.0447 11 21.0447C11.6904 21.0447 12.25 20.485 12.25 19.7947L12.25 12.0312L20.0135 12.0312C20.7039 12.0312 21.2635 11.4715 21.2635 10.7812C21.2635 10.0908 20.7039 9.53115 20.0135 9.53115H12.25V1.76764Z" fill="#D4E1F4"/>
</svg>
