<svg width="375" height="281" viewBox="0 0 375 281" fill="none" xmlns="http://www.w3.org/2000/svg">
<g clip-path="url(#clip0_56_1095)">
<rect width="375" height="281.25" fill="#F2F2F2"/>
<g clip-path="url(#clip1_56_1095)">
<path d="M118.127 190.943C118.127 190.943 118.322 174.93 126.138 171.644C133.953 168.358 143.066 163.111 156.025 171.592C163.892 176.741 165.873 181.991 166.215 185.32C166.468 188.091 167.017 190.826 167.853 193.479C169.692 199.102 171.291 208.476 164.213 213.866C153.624 221.929 141.533 224.33 134.014 221.88C126.495 219.431 115.986 203.431 118.127 190.943Z" fill="#E0E0E0"/>
<path d="M121.621 193.45L126.074 193.48C126.074 193.48 127.976 190.753 130.203 190.769C132.096 190.918 133.964 191.305 135.761 191.92C135.761 191.92 137.707 195.444 139.417 195.799C141.127 196.153 145.418 194.812 145.83 197.127C146.243 199.442 132.377 223.325 118.356 219.975C104.335 216.624 106.222 216.123 106.002 210.727C105.782 205.33 121.621 193.45 121.621 193.45Z" fill="#BDBDBD"/>
<path d="M162.344 261.638C162.344 261.638 192.002 232.554 239.071 274.41L206.154 304.157L162.344 261.638Z" fill="#D4D4D4"/>
<path d="M135.416 217.266C135.416 217.266 145.459 254.721 135.618 278.546C125.778 302.371 191.165 279.648 189.296 264.992C187.427 250.335 162.497 239.374 164.213 213.866L135.416 217.266Z" fill="#E0E0E0"/>
<path d="M137.157 275.595C137.157 275.595 207.966 252.36 267.147 263.727C267.147 263.727 287.384 359.777 166.794 337.028C166.794 337.028 106.607 334.817 137.157 275.595Z" fill="#E0E0E0"/>
<path d="M145.35 186.61C145.35 186.874 145.286 187.133 145.162 187.366C145.039 187.599 144.861 187.798 144.643 187.946C144.425 188.094 144.174 188.187 143.912 188.216C143.65 188.244 143.385 188.209 143.14 188.112C142.895 188.015 142.678 187.859 142.507 187.659C142.336 187.459 142.216 187.219 142.159 186.962C142.101 186.705 142.108 186.438 142.177 186.184C142.247 185.93 142.378 185.696 142.558 185.504C143.297 185.19 144.129 185.177 144.877 185.468C145.027 185.618 145.146 185.796 145.228 185.992C145.309 186.188 145.35 186.398 145.35 186.61Z" fill="#333333"/>
<path opacity="0.3" d="M122.758 197.696L120.938 199.152" stroke="#4D4D4D" stroke-width="0.75" stroke-miterlimit="10"/>
<path opacity="0.3" d="M134.771 198.06V200.972" stroke="#4D4D4D" stroke-width="0.75" stroke-miterlimit="10"/>
<path d="M257.881 265.763C264.362 264.739 265.727 250.071 265.727 250.071L267.773 269.174L257.881 265.763Z" fill="#E0E0E0"/>
<path d="M139.127 176.226C139.127 176.226 137.853 179.622 140.825 180.471C143.338 180.985 145.913 181.128 148.467 180.896" stroke="#828282" stroke-miterlimit="10"/>
</g>
<path d="M180.25 110.355V109.335H175.105C175.3 108.795 175.465 108.225 175.6 107.655L174.61 107.46C174.19 109.17 173.53 110.895 172.66 112.02C172.885 112.185 173.26 112.575 173.425 112.77C173.92 112.11 174.355 111.27 174.745 110.355H180.25ZM173.29 109.44C172.825 108.99 171.895 108.36 171.145 107.97L170.575 108.66C171.31 109.095 172.24 109.755 172.705 110.22L173.29 109.44ZM173.05 113.115C172.57 112.725 171.61 112.2 170.86 111.885L170.32 112.605C171.07 112.965 172 113.535 172.48 113.94L173.05 113.115ZM169.33 109.905V116.16H168.025V109.905H169.33ZM170.215 117.195V108.87H167.14V118.65H168.025V117.195H170.215ZM170.905 121.11C171.475 119.73 172.165 117.855 172.66 116.28L171.79 115.755C171.265 117.435 170.5 119.415 169.93 120.585L170.905 121.11ZM177.79 117.465C177.415 116.985 176.635 116.325 175.975 115.875L175.405 116.4C176.065 116.865 176.845 117.57 177.19 118.05L177.79 117.465ZM174.49 118.125C174.595 117.42 174.715 116.61 174.85 115.77H178.615C178.555 116.745 178.495 117.525 178.42 118.125H174.49ZM178.78 112.605C178.75 113.415 178.72 114.135 178.675 114.78H177.535L178.09 114.21C177.73 113.73 176.935 113.07 176.275 112.635L175.72 113.145C176.38 113.625 177.13 114.3 177.505 114.78H174.985C175.09 114.045 175.195 113.295 175.285 112.605H178.78ZM180.355 115.77V114.78H179.635C179.68 114.015 179.71 113.145 179.755 112.17C179.77 112.035 179.77 111.675 179.77 111.675H174.43C174.325 112.605 174.19 113.7 174.04 114.78H172.795V115.77H173.89C173.71 117 173.5 118.185 173.32 119.07H178.255C178.18 119.52 178.075 119.805 177.955 119.925C177.805 120.105 177.655 120.135 177.415 120.135C177.145 120.135 176.455 120.12 175.72 120.06C175.885 120.33 175.99 120.72 176.005 121.005C176.71 121.035 177.415 121.05 177.805 121.02C178.24 120.975 178.525 120.855 178.795 120.51C178.99 120.27 179.125 119.85 179.26 119.07H180.115V118.125H179.38C179.455 117.495 179.515 116.73 179.575 115.77H180.355ZM182.995 115.065V112.71H184.3V115.065H182.995ZM184.3 109.425V111.75H182.995V109.425H184.3ZM186.595 111.75H185.245V109.425H186.595V111.75ZM185.245 115.065V112.71H186.595V115.065H185.245ZM186.595 116.025V116.67H187.48V108.48H182.14V116.865H182.995V116.025H184.3V121.14H185.245V116.025H186.595ZM187.225 120.675C187.945 119.91 188.335 118.65 188.575 117.525L187.72 117.255C187.51 118.305 187.075 119.505 186.4 120.21L187.225 120.675ZM189.1 117.72C189.31 118.53 189.49 119.565 189.505 120.24L190.3 120.105C190.27 119.43 190.09 118.395 189.85 117.585L189.1 117.72ZM190.645 117.555C190.99 118.23 191.305 119.13 191.44 119.7L192.175 119.475C192.025 118.89 191.695 118.035 191.32 117.36L190.645 117.555ZM193.825 118.59C193.63 118.155 193.18 117.495 192.745 117L192.145 117.3C192.535 117.795 192.97 118.485 193.165 118.92L193.825 118.59ZM193.195 109.56V110.58H189.25V109.56H193.195ZM189.25 112.38V111.345H193.195V112.38H189.25ZM195.4 114.915V114.06H189.25V113.19H194.2V108.765H191.41C191.59 108.435 191.77 108.045 191.95 107.655L190.75 107.445C190.66 107.82 190.48 108.33 190.315 108.765H188.23V116.64H194.08C193.93 118.965 193.75 119.865 193.495 120.12C193.375 120.24 193.255 120.27 193 120.27C192.775 120.27 192.145 120.255 191.485 120.195C191.62 120.435 191.725 120.825 191.74 121.095C192.445 121.14 193.12 121.14 193.465 121.125C193.855 121.08 194.11 120.99 194.35 120.735C194.74 120.315 194.92 119.19 195.115 116.235C195.145 116.085 195.16 115.8 195.16 115.8H189.25V114.915H195.4ZM203.08 114.72C204.13 115.755 205.09 116.325 206.455 116.325C208.045 116.325 209.425 115.41 210.37 113.7L209.305 113.13C208.69 114.315 207.655 115.11 206.47 115.11C205.39 115.11 204.73 114.645 203.92 113.88C202.87 112.83 201.91 112.275 200.545 112.275C198.955 112.275 197.575 113.19 196.63 114.9L197.695 115.47C198.31 114.285 199.345 113.49 200.53 113.49C201.625 113.49 202.27 113.955 203.08 114.72ZM163.36 130.01H161.8V128.615H163.36V130.01ZM160.915 130.01H159.37V128.615H160.915V130.01ZM158.47 130.01H156.985V128.615H158.47V130.01ZM164.365 127.895H156.025V130.73H164.365V127.895ZM165.16 131.435H155.215V132.275H165.16V131.435ZM157.525 133.67H162.82V134.945H157.525V133.67ZM160.525 135.665L160.54 135.65H163.615C163.15 136.085 162.535 136.595 162.01 136.97C161.41 136.595 160.9 136.175 160.525 135.725V135.665ZM160.525 139.355V136.91C161.575 137.87 163.015 138.635 164.485 139.01C164.635 138.755 164.905 138.365 165.13 138.155C164.305 137.99 163.48 137.72 162.745 137.36C163.39 136.955 164.125 136.4 164.755 135.86L163.96 135.32L163.915 135.365V132.965H156.49V135.65H159.235C158.23 136.55 156.805 137.315 155.44 137.825C155.65 138.02 155.965 138.44 156.115 138.65C157.255 138.17 158.455 137.465 159.475 136.64V139.355H160.525ZM155.155 130.265C154.69 129.53 153.655 128.51 152.74 127.82L151.885 128.45C152.8 129.17 153.805 130.205 154.255 130.955L155.155 130.265ZM154.705 133.325H151.75V134.375H153.655V138.215C152.98 138.845 152.215 139.475 151.585 139.94L152.17 141.005C152.905 140.36 153.595 139.73 154.255 139.085C155.185 140.255 156.535 140.78 158.5 140.855C160.18 140.93 163.345 140.9 165.025 140.825C165.07 140.495 165.25 139.985 165.385 139.73C163.585 139.85 160.135 139.895 158.485 139.82C156.73 139.76 155.41 139.25 154.705 138.14V133.325ZM178.24 129.845C178.105 131.645 177.94 132.395 177.685 132.635C177.55 132.755 177.415 132.77 177.16 132.77C176.875 132.77 176.14 132.755 175.39 132.695C175.57 132.965 175.705 133.4 175.735 133.715C176.5 133.76 177.235 133.76 177.625 133.73C178.06 133.7 178.345 133.625 178.615 133.34C179.005 132.92 179.2 131.885 179.38 129.29C179.41 129.125 179.425 128.81 179.425 128.81H174.25C174.34 128.42 174.4 128.015 174.46 127.595L173.32 127.445C173.005 130.055 172.225 132.125 170.635 133.37C170.905 133.535 171.385 133.895 171.58 134.075C172.72 133.055 173.515 131.645 174.01 129.845H178.24ZM170.785 129.215C170.185 128.66 169 127.985 168.04 127.58L167.425 128.375C168.385 128.825 169.555 129.56 170.125 130.1L170.785 129.215ZM170.005 133.1C169.405 132.605 168.19 131.96 167.23 131.585L166.63 132.395C167.605 132.83 168.79 133.52 169.39 134.03L170.005 133.1ZM169.78 135.41C168.955 137.105 167.875 139.055 167.11 140.21L168.055 140.93C168.88 139.55 169.87 137.69 170.605 136.115L169.78 135.41ZM177.94 135.425C177.4 136.445 176.62 137.315 175.675 138.005C174.745 137.27 174.01 136.4 173.485 135.425H177.94ZM178.735 134.375L178.525 134.42H171.445V135.425H173.185L172.45 135.68C173.035 136.805 173.815 137.78 174.76 138.605C173.455 139.355 171.955 139.865 170.41 140.135C170.62 140.375 170.875 140.84 170.965 141.125C172.645 140.765 174.25 140.18 175.645 139.31C176.815 140.135 178.18 140.75 179.695 141.14C179.845 140.84 180.16 140.375 180.415 140.15C178.99 139.85 177.7 139.34 176.59 138.65C177.85 137.645 178.855 136.355 179.455 134.69L178.735 134.375ZM192.205 134.69H185.95V133.175H192.205V134.69ZM185.95 137.225V135.65H192.205V137.225H185.95ZM195.055 130.43V129.38H187.42C187.645 128.84 187.825 128.27 188.005 127.715L186.895 127.445C186.715 128.09 186.49 128.735 186.235 129.38H182.005V130.43H185.77C184.81 132.41 183.445 134.21 181.645 135.425C181.87 135.635 182.215 136.04 182.365 136.28C183.31 135.62 184.135 134.81 184.855 133.925V141.14H185.95V138.185H192.205V139.745C192.205 139.97 192.115 140.045 191.86 140.06C191.59 140.06 190.69 140.075 189.7 140.03C189.85 140.345 190.015 140.795 190.06 141.125C191.335 141.125 192.175 141.11 192.67 140.93C193.15 140.75 193.3 140.42 193.3 139.745V132.17H186.07C186.4 131.615 186.7 131.015 186.985 130.43H195.055ZM202.57 135.98H204.34V136.85H202.57V135.98ZM201.88 137.435H205.06V135.395H201.88V137.435ZM200.92 134.75H206.02V138.08H200.92V134.75ZM200.05 138.785H206.935V134.06H200.05V138.785ZM201.46 130.37H205.495V131.36H201.46V130.37ZM203.92 132.71V132.035H206.455V129.71H200.53V132.035H202.975V132.71H199.03V133.415H208V132.71H203.92ZM198.325 139.58V129.005H208.675V139.58H198.325ZM197.29 128.06V141.125H198.325V140.54H208.675V141.125H209.74V128.06H197.29ZM214.885 132.44H224.5V131.315H220.3V127.475H219.13V131.315H214.885V127.85H213.745V132.815C213.745 135.425 213.535 138.185 211.645 140.3C211.9 140.495 212.32 140.9 212.5 141.17C213.88 139.655 214.465 137.84 214.705 135.965H221.005V141.14H222.19V134.825H214.825C214.87 134.15 214.885 133.475 214.885 132.8V132.44Z" fill="#828282"/>
</g>
<defs>
<clipPath id="clip0_56_1095">
<rect width="375" height="281" fill="white"/>
</clipPath>
<clipPath id="clip1_56_1095">
<rect width="163" height="174" fill="white" transform="translate(106 167)"/>
</clipPath>
</defs>
</svg>
