<svg width="98" height="98" viewBox="0 0 98 98" fill="none" xmlns="http://www.w3.org/2000/svg">
<g clip-path="url(#clip0_56_1096)">
<rect width="375" height="281.25" fill="#F2F2F2"/>
<g clip-path="url(#clip1_56_1096)">
<path d="M33.4728 69.9345C33.4728 69.9345 33.5771 61.2841 37.7485 59.5088C41.9199 57.7335 46.784 54.899 53.7005 59.4807C57.8998 62.2625 58.957 65.0984 59.1395 66.8972C59.2746 68.3938 59.5678 69.8714 60.0138 71.3048C60.9951 74.3423 61.849 79.4067 58.0708 82.3186C52.4193 86.6744 45.9658 87.9712 41.9525 86.648C37.9393 85.3249 32.3301 76.681 33.4728 69.9345Z" fill="#E0E0E0"/>
<path d="M35.3374 71.2891L37.7141 71.3055C37.7141 71.3055 38.7297 69.8322 39.918 69.8405C40.9288 69.9211 41.9255 70.13 42.8848 70.4625C42.8848 70.4625 43.9231 72.3665 44.836 72.5579C45.7488 72.7492 48.0391 72.0249 48.2592 73.2756C48.4792 74.5262 41.0787 87.4284 33.5949 85.6185C26.1112 83.8085 27.1186 83.538 27.0012 80.6226C26.8838 77.7072 35.3374 71.2891 35.3374 71.2891Z" fill="#BDBDBD"/>
<path d="M57.0732 108.126C57.0732 108.126 72.903 92.4143 98.0259 115.026L80.4569 131.096L57.0732 108.126Z" fill="#D4D4D4"/>
<path d="M42.7004 84.155C42.7004 84.155 48.0604 104.39 42.8083 117.261C37.5562 130.131 72.456 117.856 71.4584 109.938C70.4608 102.02 57.1544 96.0986 58.0704 82.3186L42.7004 84.155Z" fill="#E0E0E0"/>
<path d="M48.0028 67.594C48.0028 67.7363 47.9684 67.8765 47.9026 68.0023C47.8368 68.1281 47.7416 68.2356 47.6253 68.3156C47.509 68.3956 47.3751 68.4456 47.2353 68.4612C47.0956 68.4769 46.9541 68.4576 46.8234 68.4052C46.6927 68.3528 46.5766 68.2688 46.4853 68.1605C46.394 68.0523 46.3302 67.9231 46.2995 67.7842C46.2689 67.6453 46.2723 67.5009 46.3094 67.3636C46.3466 67.2264 46.4163 67.1003 46.5126 66.9966C46.9068 66.8267 47.3511 66.8198 47.7503 66.9771C47.8305 67.058 47.8941 67.1541 47.9374 67.26C47.9807 67.3658 48.003 67.4794 48.0028 67.594Z" fill="#333333"/>
<path opacity="0.3" d="M35.9444 73.5829L34.9729 74.3696" stroke="#4D4D4D" stroke-width="0.75" stroke-miterlimit="10"/>
<path opacity="0.3" d="M42.3562 73.7795V75.3528" stroke="#4D4D4D" stroke-width="0.75" stroke-miterlimit="10"/>
<path d="M44.6812 61.9839C44.6812 61.9839 44.0014 63.8188 45.5876 64.2776C46.9289 64.5553 48.3031 64.6326 49.6665 64.5069" stroke="#828282" stroke-miterlimit="10"/>
</g>
<path d="M42.4 15.284V14.468H38.284C38.44 14.036 38.572 13.58 38.68 13.124L37.888 12.968C37.552 14.336 37.024 15.716 36.328 16.616C36.508 16.748 36.808 17.06 36.94 17.216C37.336 16.688 37.684 16.016 37.996 15.284H42.4ZM36.832 14.552C36.46 14.192 35.716 13.688 35.116 13.376L34.66 13.928C35.248 14.276 35.992 14.804 36.364 15.176L36.832 14.552ZM36.64 17.492C36.256 17.18 35.488 16.76 34.888 16.508L34.456 17.084C35.056 17.372 35.8 17.828 36.184 18.152L36.64 17.492ZM33.664 14.924V19.928H32.62V14.924H33.664ZM34.372 20.756V14.096H31.912V21.92H32.62V20.756H34.372ZM34.924 23.888C35.38 22.784 35.932 21.284 36.328 20.024L35.632 19.604C35.212 20.948 34.6 22.532 34.144 23.468L34.924 23.888ZM40.432 20.972C40.132 20.588 39.508 20.06 38.98 19.7L38.524 20.12C39.052 20.492 39.676 21.056 39.952 21.44L40.432 20.972ZM37.792 21.5C37.876 20.936 37.972 20.288 38.08 19.616H41.092C41.044 20.396 40.996 21.02 40.936 21.5H37.792ZM41.224 17.084C41.2 17.732 41.176 18.308 41.14 18.824H40.228L40.672 18.368C40.384 17.984 39.748 17.456 39.22 17.108L38.776 17.516C39.304 17.9 39.904 18.44 40.204 18.824H38.188C38.272 18.236 38.356 17.636 38.428 17.084H41.224ZM42.484 19.616V18.824H41.908C41.944 18.212 41.968 17.516 42.004 16.736C42.016 16.628 42.016 16.34 42.016 16.34H37.744C37.66 17.084 37.552 17.96 37.432 18.824H36.436V19.616H37.312C37.168 20.6 37 21.548 36.856 22.256H40.804C40.744 22.616 40.66 22.844 40.564 22.94C40.444 23.084 40.324 23.108 40.132 23.108C39.916 23.108 39.364 23.096 38.776 23.048C38.908 23.264 38.992 23.576 39.004 23.804C39.568 23.828 40.132 23.84 40.444 23.816C40.792 23.78 41.02 23.684 41.236 23.408C41.392 23.216 41.5 22.88 41.608 22.256H42.292V21.5H41.704C41.764 20.996 41.812 20.384 41.86 19.616H42.484ZM44.596 19.052V17.168H45.64V19.052H44.596ZM45.64 14.54V16.4H44.596V14.54H45.64ZM47.476 16.4H46.396V14.54H47.476V16.4ZM46.396 19.052V17.168H47.476V19.052H46.396ZM47.476 19.82V20.336H48.184V13.784H43.912V20.492H44.596V19.82H45.64V23.912H46.396V19.82H47.476ZM47.98 23.54C48.556 22.928 48.868 21.92 49.06 21.02L48.376 20.804C48.208 21.644 47.86 22.604 47.32 23.168L47.98 23.54ZM49.48 21.176C49.648 21.824 49.792 22.652 49.804 23.192L50.44 23.084C50.416 22.544 50.272 21.716 50.08 21.068L49.48 21.176ZM50.716 21.044C50.992 21.584 51.244 22.304 51.352 22.76L51.94 22.58C51.82 22.112 51.556 21.428 51.256 20.888L50.716 21.044ZM53.26 21.872C53.104 21.524 52.744 20.996 52.396 20.6L51.916 20.84C52.228 21.236 52.576 21.788 52.732 22.136L53.26 21.872ZM52.756 14.648V15.464H49.6V14.648H52.756ZM49.6 16.904V16.076H52.756V16.904H49.6ZM54.52 18.932V18.248H49.6V17.552H53.56V14.012H51.328C51.472 13.748 51.616 13.436 51.76 13.124L50.8 12.956C50.728 13.256 50.584 13.664 50.452 14.012H48.784V20.312H53.464C53.344 22.172 53.2 22.892 52.996 23.096C52.9 23.192 52.804 23.216 52.6 23.216C52.42 23.216 51.916 23.204 51.388 23.156C51.496 23.348 51.58 23.66 51.592 23.876C52.156 23.912 52.696 23.912 52.972 23.9C53.284 23.864 53.488 23.792 53.68 23.588C53.992 23.252 54.136 22.352 54.292 19.988C54.316 19.868 54.328 19.64 54.328 19.64H49.6V18.932H54.52ZM60.664 18.776C61.504 19.604 62.272 20.06 63.364 20.06C64.636 20.06 65.74 19.328 66.496 17.96L65.644 17.504C65.152 18.452 64.324 19.088 63.376 19.088C62.512 19.088 61.984 18.716 61.336 18.104C60.496 17.264 59.728 16.82 58.636 16.82C57.364 16.82 56.26 17.552 55.504 18.92L56.356 19.376C56.848 18.428 57.676 17.792 58.624 17.792C59.5 17.792 60.016 18.164 60.664 18.776ZM28.888 35.008H27.64V33.892H28.888V35.008ZM26.932 35.008H25.696V33.892H26.932V35.008ZM24.976 35.008H23.788V33.892H24.976V35.008ZM29.692 33.316H23.02V35.584H29.692V33.316ZM30.328 36.148H22.372V36.82H30.328V36.148ZM24.22 37.936H28.456V38.956H24.22V37.936ZM26.62 39.532L26.632 39.52H29.092C28.72 39.868 28.228 40.276 27.808 40.576C27.328 40.276 26.92 39.94 26.62 39.58V39.532ZM26.62 42.484V40.528C27.46 41.296 28.612 41.908 29.788 42.208C29.908 42.004 30.124 41.692 30.304 41.524C29.644 41.392 28.984 41.176 28.396 40.888C28.912 40.564 29.5 40.12 30.004 39.688L29.368 39.256L29.332 39.292V37.372H23.392V39.52H25.588C24.784 40.24 23.644 40.852 22.552 41.26C22.72 41.416 22.972 41.752 23.092 41.92C24.004 41.536 24.964 40.972 25.78 40.312V42.484H26.62ZM22.324 35.212C21.952 34.624 21.124 33.808 20.392 33.256L19.708 33.76C20.44 34.336 21.244 35.164 21.604 35.764L22.324 35.212ZM21.964 37.66H19.6V38.5H21.124V41.572C20.584 42.076 19.972 42.58 19.468 42.952L19.936 43.804C20.524 43.288 21.076 42.784 21.604 42.268C22.348 43.204 23.428 43.624 25 43.684C26.344 43.744 28.876 43.72 30.22 43.66C30.256 43.396 30.4 42.988 30.508 42.784C29.068 42.88 26.308 42.916 24.988 42.856C23.584 42.808 22.528 42.4 21.964 41.512V37.66ZM40.792 34.876C40.684 36.316 40.552 36.916 40.348 37.108C40.24 37.204 40.132 37.216 39.928 37.216C39.7 37.216 39.112 37.204 38.512 37.156C38.656 37.372 38.764 37.72 38.788 37.972C39.4 38.008 39.988 38.008 40.3 37.984C40.648 37.96 40.876 37.9 41.092 37.672C41.404 37.336 41.56 36.508 41.704 34.432C41.728 34.3 41.74 34.048 41.74 34.048H37.6C37.672 33.736 37.72 33.412 37.768 33.076L36.856 32.956C36.604 35.044 35.98 36.7 34.708 37.696C34.924 37.828 35.308 38.116 35.464 38.26C36.376 37.444 37.012 36.316 37.408 34.876H40.792ZM34.828 34.372C34.348 33.928 33.4 33.388 32.632 33.064L32.14 33.7C32.908 34.06 33.844 34.648 34.3 35.08L34.828 34.372ZM34.204 37.48C33.724 37.084 32.752 36.568 31.984 36.268L31.504 36.916C32.284 37.264 33.232 37.816 33.712 38.224L34.204 37.48ZM34.024 39.328C33.364 40.684 32.5 42.244 31.888 43.168L32.644 43.744C33.304 42.64 34.096 41.152 34.684 39.892L34.024 39.328ZM40.552 39.34C40.12 40.156 39.496 40.852 38.74 41.404C37.996 40.816 37.408 40.12 36.988 39.34H40.552ZM41.188 38.5L41.02 38.536H35.356V39.34H36.748L36.16 39.544C36.628 40.444 37.252 41.224 38.008 41.884C36.964 42.484 35.764 42.892 34.528 43.108C34.696 43.3 34.9 43.672 34.972 43.9C36.316 43.612 37.6 43.144 38.716 42.448C39.652 43.108 40.744 43.6 41.956 43.912C42.076 43.672 42.328 43.3 42.532 43.12C41.392 42.88 40.36 42.472 39.472 41.92C40.48 41.116 41.284 40.084 41.764 38.752L41.188 38.5ZM51.964 38.752H46.96V37.54H51.964V38.752ZM46.96 40.78V39.52H51.964V40.78H46.96ZM54.244 35.344V34.504H48.136C48.316 34.072 48.46 33.616 48.604 33.172L47.716 32.956C47.572 33.472 47.392 33.988 47.188 34.504H43.804V35.344H46.816C46.048 36.928 44.956 38.368 43.516 39.34C43.696 39.508 43.972 39.832 44.092 40.024C44.848 39.496 45.508 38.848 46.084 38.14V43.912H46.96V41.548H51.964V42.796C51.964 42.976 51.892 43.036 51.688 43.048C51.472 43.048 50.752 43.06 49.96 43.024C50.08 43.276 50.212 43.636 50.248 43.9C51.268 43.9 51.94 43.888 52.336 43.744C52.72 43.6 52.84 43.336 52.84 42.796V36.736H47.056C47.32 36.292 47.56 35.812 47.788 35.344H54.244ZM60.256 39.784H61.672V40.48H60.256V39.784ZM59.704 40.948H62.248V39.316H59.704V40.948ZM58.936 38.8H63.016V41.464H58.936V38.8ZM58.24 42.028H63.748V38.248H58.24V42.028ZM59.368 35.296H62.596V36.088H59.368V35.296ZM61.336 37.168V36.628H63.364V34.768H58.624V36.628H60.58V37.168H57.424V37.732H64.6V37.168H61.336ZM56.86 42.664V34.204H65.14V42.664H56.86ZM56.032 33.448V43.9H56.86V43.432H65.14V43.9H65.992V33.448H56.032ZM70.108 36.952H77.8V36.052H74.44V32.98H73.504V36.052H70.108V33.28H69.196V37.252C69.196 39.34 69.028 41.548 67.516 43.24C67.72 43.396 68.056 43.72 68.2 43.936C69.304 42.724 69.772 41.272 69.964 39.772H75.004V43.912H75.952V38.86H70.06C70.096 38.32 70.108 37.78 70.108 37.24V36.952Z" fill="#828282"/>
</g>
<defs>
<clipPath id="clip0_56_1096">
<rect width="98" height="98" fill="white"/>
</clipPath>
<clipPath id="clip1_56_1096">
<rect width="87" height="94" fill="white" transform="translate(27 57)"/>
</clipPath>
</defs>
</svg>
